<svg width="38" height="33" viewBox="0 0 38 33" fill="none" xmlns="http://www.w3.org/2000/svg">
<path d="M8.08 32.6C5.6 32.6 3.64 31.68 2.2 29.84C0.84 28 0.16 25.8 0.16 23.24C0.16 18.52 1.2 14.36 3.28 10.76C5.44 7.16 9 3.72 13.96 0.439997L16.12 3.32C13.48 5.08 11.16 7.24 9.16 9.8C7.24 12.28 6.28 15.12 6.28 18.32L8.08 17.96C10.4 17.96 12.2 18.64 13.48 20C14.76 21.28 15.4 23.04 15.4 25.28C15.4 27.52 14.76 29.32 13.48 30.68C12.2 31.96 10.4 32.6 8.08 32.6ZM29.92 32.6C27.44 32.6 25.48 31.68 24.04 29.84C22.68 28 22 25.8 22 23.24C22 18.52 23.04 14.36 25.12 10.76C27.28 7.16 30.84 3.72 35.8 0.439997L37.96 3.32C35.32 5.08 33 7.24 31 9.8C29.08 12.28 28.12 15.12 28.12 18.32L29.92 17.96C32.24 17.96 34.04 18.64 35.32 20C36.6 21.28 37.24 23.04 37.24 25.28C37.24 27.52 36.6 29.32 35.32 30.68C34.04 31.96 32.24 32.6 29.92 32.6Z" fill="#C6C6C6"/>
</svg>
