<svg width="19" height="18" viewBox="0 0 19 18" fill="none" xmlns="http://www.w3.org/2000/svg">
<path d="M9.42875 17.2085H3.16666C2.76819 17.2153 2.37442 17.1217 2.02163 16.9363C1.66884 16.7509 1.36838 16.4797 1.14791 16.1477C0.878984 15.7623 0.735249 15.3035 0.736248 14.8335V10.0835C0.72505 9.92598 0.764274 9.76895 0.848245 9.63516C0.932216 9.50138 1.05658 9.39778 1.20333 9.33937C1.3413 9.26884 1.49783 9.24314 1.65111 9.26585C1.80438 9.28855 1.94674 9.35854 2.05833 9.46604C2.14337 9.54271 2.21076 9.63691 2.25587 9.74215C2.30097 9.84739 2.32271 9.96116 2.31958 10.0756V14.7781C2.31617 14.903 2.34237 15.0269 2.39603 15.1398C2.44969 15.2526 2.52929 15.3511 2.62833 15.4273C2.75907 15.5305 2.92094 15.5863 3.0875 15.5856H15.7067C15.8207 15.594 15.9353 15.5776 16.0424 15.5375C16.1495 15.4974 16.2467 15.4345 16.3272 15.3533C16.4077 15.272 16.4696 15.1743 16.5087 15.0668C16.5479 14.9593 16.5632 14.8446 16.5537 14.7306V10.0835C16.5495 9.95974 16.5743 9.83667 16.6262 9.72422C16.6782 9.61177 16.7558 9.51308 16.8528 9.43608C16.9498 9.35908 17.0636 9.30591 17.1849 9.28087C17.3062 9.25582 17.4317 9.25959 17.5512 9.29187C17.7084 9.33547 17.8483 9.42655 17.9517 9.55267C18.0552 9.67879 18.1172 9.83378 18.1292 9.99645C18.1328 10.0307 18.1328 10.0652 18.1292 10.0994V14.7623C18.1292 15.3922 17.8789 15.9963 17.4335 16.4417C16.9881 16.8871 16.3841 17.1373 15.7542 17.1373L9.42875 17.2085Z" fill="white"/>
<path d="M8.8188 11.5797V1.44637C8.80943 1.28163 8.845 1.11745 8.92172 0.971365C9.00845 0.818217 9.14374 0.698338 9.30622 0.630671C9.46869 0.563005 9.64908 0.55141 9.81889 0.59772C9.98869 0.644029 10.1382 0.745602 10.2438 0.886386C10.3495 1.02717 10.4052 1.19914 10.4021 1.37512V11.5797L10.5209 11.4847L12.4605 9.90137C12.5897 9.80178 12.7464 9.74453 12.9094 9.73744C13.0724 9.73036 13.2335 9.77378 13.3709 9.86178C13.4838 9.92677 13.5789 10.0186 13.6478 10.1292C13.7167 10.2397 13.7573 10.3656 13.7659 10.4956C13.7745 10.6256 13.7509 10.7557 13.6972 10.8744C13.6435 10.993 13.5613 11.0966 13.458 11.1759L10.22 13.7647C10.0547 13.8997 9.84772 13.9735 9.63422 13.9735C9.42071 13.9735 9.21376 13.8997 9.04838 13.7647L5.7788 11.168C5.62368 11.037 5.52485 10.8513 5.50275 10.6495C5.48065 10.4476 5.53696 10.245 5.66005 10.0834C5.72538 10.0021 5.80614 9.93451 5.89769 9.8845C5.98923 9.83449 6.08976 9.80306 6.19349 9.79202C6.29722 9.78099 6.40211 9.79056 6.50213 9.8202C6.60215 9.84983 6.69532 9.89894 6.7763 9.9647L8.17755 11.0889L8.8188 11.5797Z" fill="white"/>
</svg>
