<svg width="8" height="8" viewBox="0 0 8 8" fill="none" xmlns="http://www.w3.org/2000/svg">
<path d="M0.157394 7.84163C0.0565841 7.74022 0 7.60303 0 7.46004C0 7.31705 0.0565841 7.17986 0.157394 7.07845L7.04763 0.188217C7.09615 0.131557 7.15586 0.0855391 7.22301 0.053051C7.29016 0.0205628 7.36331 0.002306 7.43785 -0.000573227C7.51239 -0.00345245 7.58672 0.00910798 7.65618 0.0363196C7.72564 0.0635312 7.78872 0.104806 7.84147 0.157555C7.89422 0.210303 7.93549 0.273386 7.9627 0.342843C7.98991 0.4123 8.00247 0.486632 7.9996 0.561174C7.99672 0.635716 7.97846 0.708858 7.94597 0.776009C7.91348 0.843161 7.86747 0.902871 7.81081 0.951394L0.92057 7.84163C0.819159 7.94244 0.681976 7.99902 0.538983 7.99902C0.395989 7.99902 0.258806 7.94244 0.157394 7.84163Z" fill="white"/>
<path d="M0.157394 0.156418C0.258806 0.0556075 0.395989 -0.000976562 0.538983 -0.000976562C0.681976 -0.000976562 0.819159 0.0556075 0.92057 0.156418L7.81081 7.04665C7.86747 7.09518 7.91348 7.15489 7.94597 7.22204C7.97846 7.28919 7.99672 7.36233 7.9996 7.43687C8.00247 7.51141 7.98991 7.58575 7.9627 7.6552C7.93549 7.72466 7.89422 7.78774 7.84147 7.84049C7.78872 7.89324 7.72564 7.93451 7.65618 7.96173C7.58672 7.98894 7.51239 8.0015 7.43785 7.99862C7.36331 7.99574 7.29016 7.97748 7.22301 7.94499C7.15586 7.91251 7.09615 7.86649 7.04763 7.80983L0.157394 0.919594C0.0565841 0.818182 0 0.680999 0 0.538006C0 0.395013 0.0565841 0.257829 0.157394 0.156418Z" fill="white"/>
</svg>
