<svg width="27" height="26" viewBox="0 0 27 26" fill="none" xmlns="http://www.w3.org/2000/svg">
<path d="M25.3302 5.5H7.20523L6.25065 1.6375C6.17134 1.31668 5.99244 1.03165 5.74142 0.826165C5.4904 0.62068 5.18112 0.506095 4.86107 0.5H1.41732C1.09685 0.5 0.789503 0.631696 0.562897 0.866116C0.33629 1.10054 0.208984 1.41848 0.208984 1.75C0.208984 2.08152 0.33629 2.39946 0.562897 2.63388C0.789503 2.8683 1.09685 3 1.41732 3H4.1119L5.04232 7.025L7.45898 19.25C7.51336 19.5978 7.68531 19.9144 7.94421 20.1433C8.20311 20.3722 8.53216 20.4986 8.87273 20.5H24.1702C24.5255 20.4954 24.8665 20.3549 25.1275 20.1056C25.3886 19.8564 25.5512 19.5159 25.584 19.15L26.7923 7.15C26.8128 6.93973 26.79 6.72736 26.7256 6.52681C26.6612 6.32627 26.5565 6.14206 26.4185 5.98628C26.2804 5.83049 26.1121 5.70664 25.9246 5.62284C25.737 5.53904 25.5345 5.49718 25.3302 5.5ZM23.3002 18H9.67023L7.7369 8H24.2669L23.3002 18Z" fill="white"/>
<path d="M11.7012 25.5C12.7022 25.5 13.5137 24.6605 13.5137 23.625C13.5137 22.5895 12.7022 21.75 11.7012 21.75C10.7002 21.75 9.88867 22.5895 9.88867 23.625C9.88867 24.6605 10.7002 25.5 11.7012 25.5Z" fill="white"/>
<path d="M20.1582 25.5C21.1592 25.5 21.9707 24.6605 21.9707 23.625C21.9707 22.5895 21.1592 21.75 20.1582 21.75C19.1572 21.75 18.3457 22.5895 18.3457 23.625C18.3457 24.6605 19.1572 25.5 20.1582 25.5Z" fill="white"/>
</svg>
