<svg width="28" height="24" viewBox="0 0 28 24" fill="none" xmlns="http://www.w3.org/2000/svg">
<g clip-path="url(#clip0)">
<path d="M18.9766 16H4.10156C3.92332 16 3.74994 15.9433 3.60766 15.8386C3.46537 15.7339 3.36193 15.5869 3.31297 15.4197L0.0317173 4.21973C-0.00315094 4.10069 -0.00921249 3.97537 0.0140114 3.85366C0.0372334 3.73194 0.0891075 3.61714 0.16555 3.51829C0.241991 3.41944 0.340914 3.33925 0.454531 3.28402C0.56815 3.22879 0.693361 3.20003 0.820312 3.2H20.8704L21.4572 0.626667C21.4976 0.448967 21.599 0.290029 21.7446 0.176096C21.8901 0.0621619 22.0712 4.4714e-05 22.2578 0L27.1797 0C27.3972 0 27.6059 0.0842855 27.7597 0.234315C27.9136 0.384344 28 0.587827 28 0.8C28 1.01217 27.9136 1.21566 27.7597 1.36569C27.6059 1.51571 27.3972 1.6 27.1797 1.6H22.9141L19.9522 14.5979C20.4712 14.8172 20.8969 15.2043 21.1577 15.6938C21.4184 16.1834 21.4982 16.7457 21.3837 17.2859C21.2691 17.8262 20.9673 18.3114 20.5288 18.6601C20.0904 19.0087 19.5422 19.1994 18.9766 19.2H4.10156C3.884 19.2 3.67535 19.1157 3.52151 18.9657C3.36768 18.8157 3.28125 18.6122 3.28125 18.4C3.28125 18.1878 3.36768 17.9843 3.52151 17.8343C3.67535 17.6843 3.884 17.6 4.10156 17.6H18.9766C19.1941 17.6 19.4028 17.5157 19.5566 17.3657C19.7104 17.2157 19.7969 17.0122 19.7969 16.8C19.7969 16.5878 19.7104 16.3843 19.5566 16.2343C19.4028 16.0843 19.1941 16 18.9766 16ZM1.90805 4.8L4.72062 14.4H18.3203L20.5078 4.8H1.90805Z" fill="white"/>
<path d="M19.7969 21.5999C19.7969 22.0746 19.6525 22.5386 19.3821 22.9333C19.1117 23.328 18.7274 23.6356 18.2777 23.8172C17.828 23.9989 17.3332 24.0464 16.8558 23.9538C16.3785 23.8612 15.94 23.6326 15.5958 23.297C15.2516 22.9613 15.0172 22.5337 14.9223 22.0682C14.8273 21.6026 14.8761 21.12 15.0623 20.6815C15.2486 20.243 15.564 19.8681 15.9687 19.6044C16.3734 19.3407 16.8492 19.2 17.3359 19.2C17.9884 19.2007 18.6139 19.4537 19.0753 19.9037C19.5366 20.3536 19.7962 20.9636 19.7969 21.5999ZM17.3359 20.7999C17.1737 20.7999 17.0151 20.8469 16.8802 20.9348C16.7453 21.0227 16.6402 21.1476 16.5781 21.2938C16.516 21.44 16.4997 21.6008 16.5314 21.756C16.563 21.9112 16.6412 22.0537 16.7559 22.1656C16.8706 22.2775 17.0168 22.3537 17.1759 22.3846C17.335 22.4154 17.5 22.3996 17.6499 22.339C17.7997 22.2785 17.9279 22.176 18.018 22.0444C18.1081 21.9128 18.1562 21.7582 18.1562 21.5999C18.1562 21.3878 18.0698 21.1843 17.916 21.0343C17.7621 20.8842 17.5535 20.7999 17.3359 20.7999Z" fill="white"/>
<path d="M8.20312 21.5999C8.20312 22.0746 8.05879 22.5386 7.78838 22.9333C7.51797 23.328 7.13363 23.6356 6.68395 23.8172C6.23427 23.9989 5.73946 24.0464 5.26208 23.9538C4.78471 23.8612 4.34621 23.6326 4.00204 23.297C3.65787 22.9613 3.42349 22.5337 3.32854 22.0682C3.23358 21.6026 3.28231 21.12 3.46858 20.6815C3.65484 20.243 3.97026 19.8681 4.37496 19.6044C4.77966 19.3407 5.25546 19.2 5.74219 19.2C6.39465 19.2007 7.02017 19.4537 7.48153 19.9037C7.94289 20.3536 8.2024 20.9636 8.20312 21.5999ZM5.74219 20.7999C5.57994 20.7999 5.42135 20.8469 5.28645 20.9348C5.15155 21.0227 5.04641 21.1476 4.98432 21.2938C4.92223 21.44 4.90598 21.6008 4.93764 21.756C4.96929 21.9112 5.04742 22.0537 5.16214 22.1656C5.27686 22.2775 5.42303 22.3537 5.58215 22.3846C5.74128 22.4154 5.90622 22.3996 6.05611 22.339C6.206 22.2785 6.33412 22.176 6.42425 22.0444C6.51439 21.9128 6.5625 21.7582 6.5625 21.5999C6.5625 21.3878 6.47607 21.1843 6.32224 21.0343C6.1684 20.8842 5.95975 20.7999 5.74219 20.7999Z" fill="white"/>
</g>
<defs>
<clipPath id="clip0">
<rect width="28" height="24" transform="matrix(-1 0 0 1 28 0)" fill="white"/>
</clipPath>
</defs>
</svg>
