<svg width="20" height="21" viewBox="0 0 20 21" fill="none" xmlns="http://www.w3.org/2000/svg">
<g clip-path="url(#clip0)">
<path d="M19.6977 19.1274L14.7668 13.93C15.9913 12.4517 16.6815 10.5942 16.7233 8.66447C16.7652 6.73471 16.1561 4.84824 14.997 3.31691C13.8378 1.78557 12.1978 0.701043 10.3481 0.242602C8.49844 -0.21584 6.54982 -0.0207497 4.82436 0.795623C3.0989 1.612 1.6999 3.00078 0.858617 4.73239C0.0173355 6.46401 -0.215859 8.4348 0.197581 10.319C0.611021 12.2031 1.64634 13.8879 3.13241 15.0948C4.61847 16.3016 6.4663 16.9583 8.37045 16.9563C10.0862 16.9613 11.7611 16.4255 13.1632 15.4229L18.1232 20.6424C18.2213 20.7521 18.3401 20.8406 18.4725 20.9028C18.605 20.9651 18.7484 20.9997 18.8944 21.0047C19.0403 21.0097 19.1857 20.9849 19.322 20.9319C19.4583 20.8789 19.5827 20.7987 19.6879 20.696C19.7931 20.5934 19.8768 20.4704 19.9342 20.3343C19.9916 20.1982 20.0215 20.0518 20.0221 19.9039C20.0227 19.7559 19.9939 19.6092 19.9376 19.4727C19.8813 19.3362 19.7985 19.2125 19.6941 19.109L19.6977 19.1274ZM8.37045 2.21169C9.5931 2.21169 10.7883 2.57921 11.8049 3.26778C12.8215 3.95635 13.6138 4.93503 14.0817 6.08008C14.5496 7.22512 14.672 8.4851 14.4335 9.70067C14.195 10.9162 13.6062 12.0328 12.7417 12.9092C11.8771 13.7856 10.7756 14.3824 9.57647 14.6242C8.37731 14.866 7.13435 14.7419 6.00477 14.2676C4.8752 13.7933 3.90973 12.9901 3.23046 11.9596C2.55119 10.9291 2.18864 9.71754 2.18864 8.47815C2.18864 6.81618 2.83993 5.22228 3.99925 4.0471C5.15856 2.87191 6.73093 2.21169 8.37045 2.21169Z" fill="white"/>
</g>
<defs>
<clipPath id="clip0">
<rect width="20" height="21" fill="white"/>
</clipPath>
</defs>
</svg>
