<svg width="20" height="20" viewBox="0 0 20 20" fill="none" xmlns="http://www.w3.org/2000/svg">
<path d="M0.40855 19.3718C0.159542 19.1213 0.0197754 18.7824 0.0197754 18.4292C0.0197754 18.076 0.159542 17.7372 0.40855 17.4867L17.4279 0.467321C17.5478 0.327367 17.6952 0.2137 17.8611 0.133452C18.027 0.0532036 18.2076 0.00810815 18.3918 0.000996266C18.5759 -0.00611562 18.7595 0.0249095 18.9311 0.092124C19.1026 0.159338 19.2584 0.261291 19.3887 0.391583C19.519 0.521875 19.621 0.677693 19.6882 0.849257C19.7554 1.02082 19.7864 1.20443 19.7793 1.38855C19.7722 1.57267 19.7271 1.75334 19.6469 1.91921C19.5666 2.08508 19.4529 2.23256 19.313 2.35242L2.29365 19.3718C2.04315 19.6208 1.7043 19.7605 1.3511 19.7605C0.997896 19.7605 0.659044 19.6208 0.40855 19.3718Z" fill="white"/>
<path d="M0.40855 0.466899C0.659044 0.217892 0.997896 0.078125 1.3511 0.078125C1.7043 0.078125 2.04315 0.217892 2.29365 0.466899L19.313 17.4862C19.4529 17.6061 19.5666 17.7536 19.6469 17.9195C19.7271 18.0853 19.7722 18.266 19.7793 18.4501C19.7864 18.6342 19.7554 18.8178 19.6882 18.9894C19.621 19.161 19.519 19.3168 19.3887 19.4471C19.2584 19.5774 19.1026 19.6793 18.9311 19.7465C18.7595 19.8138 18.5759 19.8448 18.3918 19.8377C18.2076 19.8306 18.027 19.7855 17.8611 19.7052C17.6952 19.625 17.5478 19.5113 17.4279 19.3713L0.40855 2.352C0.159542 2.1015 0.0197754 1.76265 0.0197754 1.40945C0.0197754 1.05625 0.159542 0.717393 0.40855 0.466899Z" fill="white"/>
</svg>
