<svg width="14" height="15" viewBox="0 0 14 15" fill="none" xmlns="http://www.w3.org/2000/svg">
<path d="M13.7732 13.659L10.3257 9.94746C11.1818 8.89185 11.6644 7.56539 11.6936 6.18734C11.7229 4.80929 11.2971 3.46215 10.4866 2.36862C9.67616 1.27508 8.52955 0.500618 7.23634 0.173243C5.94313 -0.154132 4.58073 -0.0148175 3.37436 0.568158C2.16799 1.15113 1.18986 2.14287 0.601675 3.37942C0.0134858 4.61598 -0.149554 6.02333 0.139506 7.36883C0.428566 8.71433 1.15242 9.91743 2.19141 10.7792C3.23041 11.6411 4.52234 12.11 5.85364 12.1086C7.05325 12.1122 8.22427 11.7295 9.20452 11.0135L12.6723 14.7409C12.7409 14.8191 12.824 14.8824 12.9166 14.9268C13.0092 14.9712 13.1095 14.996 13.2115 14.9995C13.3135 15.0031 13.4152 14.9854 13.5105 14.9476C13.6058 14.9097 13.6928 14.8524 13.7663 14.7791C13.8399 14.7058 13.8984 14.618 13.9386 14.5208C13.9787 14.4236 13.9996 14.3191 14 14.2134C14.0004 14.1078 13.9803 14.0031 13.9409 13.9056C13.9015 13.8081 13.8436 13.7197 13.7707 13.6458L13.7732 13.659ZM5.85364 1.57938C6.70847 1.57938 7.5441 1.84183 8.25486 2.33354C8.96562 2.82525 9.51959 3.52413 9.84672 4.34181C10.1738 5.1595 10.2594 6.05925 10.0927 6.9273C9.9259 7.79534 9.51426 8.5927 8.90981 9.21852C8.30536 9.84435 7.53524 10.2705 6.69684 10.4432C5.85844 10.6159 4.98941 10.5273 4.19966 10.1886C3.4099 9.84987 2.73489 9.27631 2.25997 8.54041C1.78505 7.80452 1.53157 6.93934 1.53157 6.05429C1.53157 4.86747 1.98693 3.72926 2.79748 2.89005C3.60802 2.05084 4.70736 1.57938 5.85364 1.57938Z" fill="white"/>
</svg>
