<svg width="18" height="18" viewBox="0 0 18 18" fill="none" xmlns="http://www.w3.org/2000/svg">
<path opacity="0.67" d="M17.5048 17.5048C16.8445 18.1651 15.7742 18.1651 15.1139 17.5048L12.1304 14.5213C10.9039 15.3082 9.45398 15.777 7.88851 15.777C3.53212 15.777 0 12.2454 0 7.88847C0 3.53159 3.53212 0 7.88851 0C12.2455 0 15.777 3.53152 15.777 7.88847C15.777 9.45342 15.3076 10.9039 14.5213 12.131L17.5048 15.1145C18.1651 15.7748 18.1651 16.8445 17.5048 17.5048ZM7.88851 2.25383C4.77679 2.25383 2.25387 4.77619 2.25387 7.88844C2.25387 11.0007 4.77683 13.5231 7.88851 13.5231C11.0007 13.5231 13.5231 11.0007 13.5231 7.88844C13.5231 4.77619 11.0007 2.25383 7.88851 2.25383Z" fill="#818181"/>
</svg>
