<svg width="37" height="36" viewBox="0 0 37 36" fill="none" xmlns="http://www.w3.org/2000/svg">
<path fill-rule="evenodd" clip-rule="evenodd" d="M18.6909 0C8.80669 0 0.793945 8.01274 0.793945 17.897C0.793945 27.7812 8.80669 35.7939 18.6909 35.7939C28.5751 35.7939 36.5879 27.7812 36.5879 17.897C36.5879 8.01274 28.5751 0 18.6909 0ZM26.148 11.7447C26.9694 11.9701 27.6163 12.6342 27.8359 13.4776C28.2348 15.0062 28.2348 18.1955 28.2348 18.1955C28.2348 18.1955 28.2348 21.3848 27.8359 22.9134C27.6163 23.7568 26.9694 24.421 26.148 24.6465C24.6594 25.056 18.6898 25.056 18.6898 25.056C18.6898 25.056 12.7201 25.056 11.2314 24.6465C10.41 24.421 9.76308 23.7568 9.54355 22.9134C9.14471 21.3848 9.14471 18.1955 9.14471 18.1955C9.14471 18.1955 9.14471 15.0062 9.54355 13.4776C9.76308 12.6342 10.41 11.9701 11.2314 11.7447C12.7201 11.335 18.6898 11.335 18.6898 11.335C18.6898 11.335 24.6594 11.335 26.148 11.7447Z" fill="white"/>
<path d="M16.9004 21.4766V15.511L21.6729 18.4939L16.9004 21.4766Z" fill="white"/>
</svg>
