<svg width="37" height="36" viewBox="0 0 37 36" fill="none" xmlns="http://www.w3.org/2000/svg">
<path fill-rule="evenodd" clip-rule="evenodd" d="M18.4849 0C8.60063 0 0.587891 8.01274 0.587891 17.897C0.587891 27.7812 8.60063 35.7939 18.4849 35.7939C28.3691 35.7939 36.3818 27.7812 36.3818 17.897C36.3818 8.01274 28.3691 0 18.4849 0ZM14.5468 8.40971C15.565 8.36337 15.8903 8.35204 18.4826 8.35204H18.4796C21.0727 8.35204 21.3968 8.36337 22.415 8.40971C23.4312 8.45624 24.1252 8.61712 24.7337 8.85316C25.3621 9.09676 25.893 9.42289 26.424 9.95383C26.9549 10.4844 27.281 11.0169 27.5256 11.6447C27.7603 12.2516 27.9213 12.9452 27.9691 13.9614C28.0148 14.9796 28.0267 15.3049 28.0267 17.8972C28.0267 20.4895 28.0148 20.814 27.9691 21.8322C27.9213 22.8479 27.7603 23.5417 27.5256 24.1489C27.281 24.7765 26.9549 25.309 26.424 25.8395C25.8936 26.3705 25.3619 26.6974 24.7343 26.9412C24.127 27.1773 23.4325 27.3381 22.4164 27.3847C21.3982 27.431 21.0739 27.4423 18.4814 27.4423C15.8893 27.4423 15.5642 27.431 14.546 27.3847C13.53 27.3381 12.8362 27.1773 12.2289 26.9412C11.6015 26.6974 11.069 26.3705 10.5386 25.8395C10.0079 25.309 9.68176 24.7765 9.43777 24.1487C9.20192 23.5417 9.04105 22.8481 8.99431 21.832C8.94818 20.8138 8.93665 20.4895 8.93665 17.8972C8.93665 15.3049 8.94858 14.9794 8.99411 13.9612C9.03985 12.9454 9.20093 12.2516 9.43757 11.6445C9.68216 11.0169 10.0083 10.4844 10.5392 9.95383C11.0698 9.42308 11.6023 9.09696 12.2301 8.85316C12.837 8.61712 13.5306 8.45624 14.5468 8.40971Z" fill="white"/>
<path fill-rule="evenodd" clip-rule="evenodd" d="M17.6279 10.072C17.7942 10.0717 17.9731 10.0718 18.1661 10.0719L18.4842 10.072C21.0328 10.072 21.3348 10.0811 22.3412 10.1269C23.2719 10.1694 23.777 10.3249 24.1135 10.4556C24.5589 10.6286 24.8765 10.8354 25.2104 11.1695C25.5444 11.5035 25.7512 11.8217 25.9247 12.2672C26.0553 12.6032 26.211 13.1083 26.2534 14.039C26.2991 15.0452 26.309 15.3474 26.309 17.8948C26.309 20.4422 26.2991 20.7444 26.2534 21.7507C26.2108 22.6813 26.0553 23.1864 25.9247 23.5225C25.7516 23.9679 25.5444 24.2851 25.2104 24.619C24.8763 24.953 24.5591 25.1599 24.1135 25.3329C23.7774 25.4641 23.2719 25.6192 22.3412 25.6618C21.335 25.7075 21.0328 25.7175 18.4842 25.7175C15.9355 25.7175 15.6334 25.7075 14.6272 25.6618C13.6965 25.6188 13.1914 25.4633 12.8548 25.3327C12.4093 25.1597 12.0912 24.9528 11.7571 24.6188C11.423 24.2847 11.2162 23.9673 11.0428 23.5217C10.9121 23.1856 10.7564 22.6805 10.7141 21.7499C10.6683 20.7436 10.6592 20.4414 10.6592 17.8924C10.6592 15.3435 10.6683 15.0428 10.7141 14.0366C10.7566 13.1059 10.9121 12.6008 11.0428 12.2644C11.2158 11.8189 11.423 11.5008 11.7571 11.1667C12.0912 10.8326 12.4093 10.6258 12.8548 10.4524C13.1912 10.3211 13.6965 10.166 14.6272 10.1233C15.5077 10.0835 15.849 10.0716 17.6279 10.0696V10.072ZM23.5826 11.6569C22.9502 11.6569 22.4371 12.1694 22.4371 12.8019C22.4371 13.4343 22.9502 13.9474 23.5826 13.9474C24.2149 13.9474 24.728 13.4343 24.728 12.8019C24.728 12.1696 24.2149 11.6565 23.5826 11.6565V11.6569ZM13.5835 17.897C13.5835 15.19 15.7783 12.9952 18.4853 12.9952H18.4851C21.1922 12.9952 23.3864 15.19 23.3864 17.897C23.3864 20.6041 21.1924 22.7979 18.4853 22.7979C15.7783 22.7979 13.5835 20.6041 13.5835 17.897Z" fill="white"/>
<path d="M18.4854 14.7157C20.2425 14.7157 21.6671 16.1401 21.6671 17.8974C21.6671 19.6545 20.2425 21.0791 18.4854 21.0791C16.7281 21.0791 15.3037 19.6545 15.3037 17.8974C15.3037 16.1401 16.7281 14.7157 18.4854 14.7157Z" fill="white"/>
</svg>
